<svg xmlns="http://www.w3.org/2000/svg" viewBox="0 0 298 64" width="894" height="192" role="img" aria-label="Estudio Técnico Soregaroli"><g>
    
    <rect x="4.5" y="4.5" width="55" height="55" rx="12" fill="none" stroke="#1C2735" stroke-width="3"/>
    <path d="M32 11 L36.8 17.2 H27.2 Z" fill="#F2A93B"/>
    <path d="M12.5 50.5 V20.5 H51.5 V50.5" fill="none" stroke="#1C2735" stroke-width="1.6" stroke-linejoin="round"/>
    <rect x="16" y="23" width="14.4" height="27.5" rx="0.6" fill="#1C2735"/>
    <rect x="33.6" y="23" width="14.4" height="27.5" rx="0.6" fill="#1C2735"/>
    <rect x="30.4" y="23" width="3.2" height="27.5" fill="#F2A93B"/>
    <path d="M30.4 50.5 H33.6 L42 55.5 H22 Z" fill="#F2A93B" opacity="0.45"/>
    <rect x="10" y="50.5" width="44" height="1.6" rx="0.8" fill="#1C2735"/>
  </g><path d="M94.23 37.46L94.23 37.46Q91.59 37.46 89.56 36.52Q87.53 35.58 86.38 33.8Q85.22 32.02 85.22 29.44L85.22 29.44L85.22 28.59L89.15 28.59L89.15 29.44Q89.15 31.72 90.53 32.84Q91.92 33.96 94.23 33.96L94.23 33.96Q96.57 33.96 97.76 33.01Q98.95 32.05 98.95 30.53L98.95 30.53Q98.95 29.51 98.39 28.87Q97.83 28.22 96.75 27.83Q95.68 27.43 94.16 27.07L94.16 27.07L93.17 26.87Q90.9 26.34 89.23 25.53Q87.56 24.72 86.67 23.44Q85.78 22.15 85.78 20.07L85.78 20.07Q85.78 17.99 86.77 16.51Q87.76 15.02 89.58 14.23Q91.39 13.44 93.83 13.44L93.83 13.44Q96.28 13.44 98.19 14.26Q100.1 15.09 101.21 16.74Q102.31 18.39 102.31 20.86L102.31 20.86L102.31 21.95L98.39 21.95L98.39 20.86Q98.39 19.44 97.83 18.59Q97.27 17.73 96.24 17.33Q95.22 16.94 93.83 16.94L93.83 16.94Q91.79 16.94 90.73 17.73Q89.68 18.52 89.68 19.97L89.68 19.97Q89.68 20.9 90.15 21.54Q90.63 22.18 91.57 22.6Q92.51 23.01 93.93 23.3L93.93 23.3L94.92 23.54Q97.3 24.06 99.08 24.87Q100.86 25.68 101.87 27Q102.88 28.32 102.88 30.43L102.88 30.43Q102.88 32.51 101.8 34.1Q100.73 35.68 98.8 36.57Q96.87 37.46 94.23 37.46M117.16 37.46L117.16 37.46Q112.88 37.46 110.32 35.07Q107.76 32.68 107.76 28.19L107.76 28.19L107.76 22.71Q107.76 18.22 110.32 15.83Q112.88 13.44 117.16 13.44L117.16 13.44Q121.49 13.44 124.03 15.83Q126.57 18.22 126.57 22.71L126.57 22.71L126.57 28.19Q126.57 32.68 124.03 35.07Q121.49 37.46 117.16 37.46M117.16 33.9L117.16 33.9Q119.74 33.9 121.17 32.4Q122.61 30.89 122.61 28.32L122.61 28.32L122.61 22.58Q122.61 20 121.17 18.5Q119.74 17 117.16 17L117.16 17Q114.62 17 113.19 18.5Q111.75 20 111.75 22.58L111.75 22.58L111.75 28.32Q111.75 30.89 113.19 32.4Q114.62 33.9 117.16 33.9M136.54 37L132.54 37L132.54 13.9L142.41 13.9Q144.59 13.9 146.2 14.66Q147.82 15.42 148.73 16.79Q149.64 18.16 149.64 20.07L149.64 20.07L149.64 20.43Q149.64 22.58 148.61 23.87Q147.59 25.15 146.14 25.75L146.14 25.75L146.14 26.27Q147.43 26.34 148.17 27.17Q148.91 27.99 148.91 29.38L148.91 29.38L148.91 37L144.95 37L144.95 29.94Q144.95 29.11 144.51 28.6Q144.06 28.09 143.07 28.09L143.07 28.09L136.54 28.09L136.54 37M136.54 17.5L136.54 24.49L142.01 24.49Q143.73 24.49 144.7 23.59Q145.68 22.68 145.68 21.16L145.68 21.16L145.68 20.86Q145.68 19.31 144.72 18.4Q143.76 17.5 142.01 17.5L142.01 17.5L136.54 17.5M170.26 37L155.38 37L155.38 13.9L170.1 13.9L170.1 17.5L159.37 17.5L159.37 23.57L169.17 23.57L169.17 27.17L159.37 27.17L159.37 33.4L170.26 33.4L170.26 37M183.73 37.46L183.73 37.46Q181.28 37.46 179.35 36.39Q177.42 35.32 176.28 33.25Q175.15 31.19 175.15 28.19L175.15 28.19L175.15 22.71Q175.15 18.22 177.65 15.83Q180.16 13.44 184.39 13.44L184.39 13.44Q188.61 13.44 190.89 15.7Q193.16 17.96 193.16 21.79L193.16 21.79L193.16 21.92L189.27 21.92L189.27 21.66Q189.27 20.34 188.74 19.28Q188.21 18.22 187.12 17.61Q186.04 17 184.39 17L184.39 17Q181.94 17 180.54 18.5Q179.14 20 179.14 22.64L179.14 22.64L179.14 28.25Q179.14 30.86 180.54 32.41Q181.94 33.96 184.45 33.96L184.45 33.96Q186.96 33.96 188.11 32.61Q189.27 31.26 189.27 29.15L189.27 29.15L189.27 28.75L183.43 28.75L183.43 25.38L193.16 25.38L193.16 37L189.53 37L189.53 34.72L188.97 34.72Q188.71 35.32 188.15 35.96Q187.59 36.6 186.55 37.03Q185.51 37.46 183.73 37.46M201.97 37L197.88 37L204.22 13.9L211.12 13.9L217.45 37L213.36 37L211.97 31.72L203.36 31.72L201.97 37M207.39 16.38L204.28 28.09L211.05 28.09L207.95 16.38L207.39 16.38M226.36 37L222.37 37L222.37 13.9L232.24 13.9Q234.41 13.9 236.03 14.66Q237.65 15.42 238.56 16.79Q239.46 18.16 239.46 20.07L239.46 20.07L239.46 20.43Q239.46 22.58 238.44 23.87Q237.42 25.15 235.96 25.75L235.96 25.75L235.96 26.27Q237.25 26.34 237.99 27.17Q238.74 27.99 238.74 29.38L238.74 29.38L238.74 37L234.78 37L234.78 29.94Q234.78 29.11 234.33 28.6Q233.89 28.09 232.9 28.09L232.9 28.09L226.36 28.09L226.36 37M226.36 17.5L226.36 24.49L231.84 24.49Q233.56 24.49 234.53 23.59Q235.5 22.68 235.5 21.16L235.5 21.16L235.5 20.86Q235.5 19.31 234.55 18.4Q233.59 17.5 231.84 17.5L231.84 17.5L226.36 17.5M254.05 37.46L254.05 37.46Q249.76 37.46 247.2 35.07Q244.64 32.68 244.64 28.19L244.64 28.19L244.64 22.71Q244.64 18.22 247.2 15.83Q249.76 13.44 254.05 13.44L254.05 13.44Q258.37 13.44 260.91 15.83Q263.45 18.22 263.45 22.71L263.45 22.71L263.45 28.19Q263.45 32.68 260.91 35.07Q258.37 37.46 254.05 37.46M254.05 33.9L254.05 33.9Q256.62 33.9 258.06 32.4Q259.49 30.89 259.49 28.32L259.49 28.32L259.49 22.58Q259.49 20 258.06 18.5Q256.62 17 254.05 17L254.05 17Q251.51 17 250.07 18.5Q248.64 20 248.64 22.58L248.64 22.58L248.64 28.32Q248.64 30.89 250.07 32.4Q251.51 33.9 254.05 33.9M284.24 37L269.43 37L269.43 13.9L273.42 13.9L273.42 33.4L284.24 33.4L284.24 37M293.32 37L289.33 37L289.33 13.9L293.32 13.9L293.32 37" fill="#111A26"/><path d="M89.14 57.46L84.72 57.46L84.72 50.53L89.09 50.53L89.09 51.5L85.79 51.5L85.79 53.49L88.81 53.49L88.81 54.46L85.79 54.46L85.79 56.49L89.14 56.49L89.14 57.46M94.9 57.6L94.9 57.6Q94.12 57.6 93.51 57.32Q92.91 57.04 92.57 56.5Q92.23 55.97 92.23 55.19L92.23 55.19L92.23 54.95L93.29 54.95L93.29 55.19Q93.29 55.93 93.73 56.29Q94.17 56.66 94.9 56.66L94.9 56.66Q95.64 56.66 96.02 56.35Q96.39 56.03 96.39 55.54L96.39 55.54Q96.39 55.21 96.22 55Q96.04 54.8 95.71 54.67Q95.39 54.55 94.93 54.44L94.93 54.44L94.56 54.35Q93.9 54.19 93.41 53.96Q92.92 53.73 92.65 53.34Q92.39 52.96 92.39 52.35L92.39 52.35Q92.39 51.74 92.69 51.3Q92.99 50.87 93.52 50.63Q94.06 50.39 94.78 50.39L94.78 50.39Q95.5 50.39 96.07 50.64Q96.64 50.89 96.97 51.37Q97.3 51.86 97.3 52.59L97.3 52.59L97.3 52.95L96.24 52.95L96.24 52.59Q96.24 52.14 96.05 51.87Q95.87 51.59 95.54 51.46Q95.22 51.33 94.78 51.33L94.78 51.33Q94.15 51.33 93.8 51.59Q93.44 51.86 93.44 52.32L93.44 52.32Q93.44 52.64 93.6 52.84Q93.75 53.04 94.05 53.17Q94.35 53.3 94.79 53.4L94.79 53.4L95.16 53.49Q95.83 53.64 96.35 53.87Q96.86 54.1 97.16 54.5Q97.45 54.9 97.45 55.52L97.45 55.52Q97.45 56.14 97.14 56.61Q96.83 57.07 96.26 57.34Q95.68 57.6 94.9 57.6M103.33 57.46L102.26 57.46L102.26 51.5L100.13 51.5L100.13 50.53L105.45 50.53L105.45 51.5L103.33 51.5L103.33 57.46M111.3 57.6L111.3 57.6Q110.48 57.6 109.89 57.3Q109.3 57 108.98 56.45Q108.66 55.89 108.66 55.08L108.66 55.08L108.66 50.53L109.74 50.53L109.74 55.11Q109.74 55.85 110.15 56.24Q110.55 56.64 111.3 56.64L111.3 56.64Q112.06 56.64 112.46 56.24Q112.87 55.85 112.87 55.11L112.87 55.11L112.87 50.53L113.94 50.53L113.94 55.08Q113.94 55.89 113.62 56.45Q113.3 57 112.71 57.3Q112.12 57.6 111.3 57.6M120.14 57.46L117.36 57.46L117.36 56.51L118.29 56.51L118.29 51.48L117.36 51.48L117.36 50.53L120.14 50.53Q121.52 50.53 122.26 51.23Q123 51.94 123 53.35L123 53.35L123 54.65Q123 56.06 122.26 56.76Q121.52 57.46 120.14 57.46L120.14 57.46M119.37 51.51L119.37 56.49L120.15 56.49Q121.05 56.49 121.48 56.03Q121.92 55.58 121.92 54.68L121.92 54.68L121.92 53.31Q121.92 52.4 121.48 51.96Q121.05 51.51 120.15 51.51L120.15 51.51L119.37 51.51M127.56 57.46L126.49 57.46L126.49 50.53L127.56 50.53L127.56 57.46M133.9 57.6L133.9 57.6Q132.62 57.6 131.87 56.88Q131.11 56.16 131.11 54.81L131.11 54.81L131.11 53.18Q131.11 51.83 131.87 51.11Q132.62 50.39 133.9 50.39L133.9 50.39Q135.17 50.39 135.93 51.11Q136.69 51.83 136.69 53.18L136.69 53.18L136.69 54.81Q136.69 56.16 135.93 56.88Q135.17 57.6 133.9 57.6M133.9 56.64L133.9 56.64Q134.72 56.64 135.16 56.16Q135.61 55.68 135.61 54.85L135.61 54.85L135.61 53.14Q135.61 52.31 135.16 51.83Q134.72 51.35 133.9 51.35L133.9 51.35Q133.09 51.35 132.64 51.83Q132.18 52.31 132.18 53.14L132.18 53.14L132.18 54.85Q132.18 55.68 132.64 56.16Q133.09 56.64 133.9 56.64M147.5 57.46L146.43 57.46L146.43 51.5L144.3 51.5L144.3 50.53L149.63 50.53L149.63 51.5L147.5 51.5L147.5 57.46M157.3 57.46L152.89 57.46L152.89 50.53L157.25 50.53L157.25 51.5L153.95 51.5L153.95 53.49L156.97 53.49L156.97 54.46L153.95 54.46L153.95 56.49L157.3 56.49L157.3 57.46M155.4 49.96L154.46 49.96L155.14 48.71L156.35 48.71L155.4 49.96M163.28 57.6L163.28 57.6Q162.01 57.6 161.27 56.88Q160.53 56.16 160.53 54.81L160.53 54.81L160.53 53.18Q160.53 51.83 161.27 51.11Q162.01 50.39 163.28 50.39L163.28 50.39Q164.53 50.39 165.21 51.08Q165.88 51.78 165.88 52.98L165.88 52.98L165.88 53.03L164.82 53.03L164.82 52.95Q164.82 52.24 164.44 51.8Q164.06 51.35 163.28 51.35L163.28 51.35Q162.49 51.35 162.04 51.83Q161.6 52.31 161.6 53.16L161.6 53.16L161.6 54.83Q161.6 55.67 162.04 56.15Q162.49 56.64 163.28 56.64L163.28 56.64Q164.06 56.64 164.44 56.19Q164.82 55.74 164.82 55.04L164.82 55.04L164.82 54.88L165.88 54.88L165.88 55.01Q165.88 56.21 165.21 56.91Q164.53 57.6 163.28 57.6M170.42 57.46L169.36 57.46L169.36 50.53L171.42 50.53L173.3 56.75L173.46 56.75L173.46 50.53L174.52 50.53L174.52 57.46L172.46 57.46L170.58 51.23L170.42 51.23L170.42 57.46M179.32 57.46L178.25 57.46L178.25 50.53L179.32 50.53L179.32 57.46M185.63 57.6L185.63 57.6Q184.36 57.6 183.62 56.88Q182.87 56.16 182.87 54.81L182.87 54.81L182.87 53.18Q182.87 51.83 183.62 51.11Q184.36 50.39 185.63 50.39L185.63 50.39Q186.87 50.39 187.55 51.08Q188.23 51.78 188.23 52.98L188.23 52.98L188.23 53.03L187.17 53.03L187.17 52.95Q187.17 52.24 186.79 51.8Q186.41 51.35 185.63 51.35L185.63 51.35Q184.83 51.35 184.39 51.83Q183.94 52.31 183.94 53.16L183.94 53.16L183.94 54.83Q183.94 55.67 184.39 56.15Q184.83 56.64 185.63 56.64L185.63 56.64Q186.41 56.64 186.79 56.19Q187.17 55.74 187.17 55.04L187.17 55.04L187.17 54.88L188.23 54.88L188.23 55.01Q188.23 56.21 187.55 56.91Q186.87 57.6 185.63 57.6M194.31 57.6L194.31 57.6Q193.03 57.6 192.28 56.88Q191.53 56.16 191.53 54.81L191.53 54.81L191.53 53.18Q191.53 51.83 192.28 51.11Q193.03 50.39 194.31 50.39L194.31 50.39Q195.58 50.39 196.34 51.11Q197.1 51.83 197.1 53.18L197.1 53.18L197.1 54.81Q197.1 56.16 196.34 56.88Q195.58 57.6 194.31 57.6M194.31 56.64L194.31 56.64Q195.13 56.64 195.57 56.16Q196.02 55.68 196.02 54.85L196.02 54.85L196.02 53.14Q196.02 52.31 195.57 51.83Q195.13 51.35 194.31 51.35L194.31 51.35Q193.51 51.35 193.05 51.83Q192.59 52.31 192.59 53.14L192.59 53.14L192.59 54.85Q192.59 55.68 193.05 56.16Q193.51 56.64 194.31 56.64M205.74 55.43L205.74 55.43Q205.4 55.43 205.16 55.2Q204.93 54.98 204.93 54.62L204.93 54.62Q204.93 54.26 205.16 54.04Q205.4 53.82 205.74 53.82L205.74 53.82Q206.09 53.82 206.32 54.04Q206.55 54.27 206.55 54.62L206.55 54.62Q206.55 54.98 206.32 55.2Q206.09 55.43 205.74 55.43M215.04 57.46L213.93 57.46L215.91 50.53L217.79 50.53L219.76 57.46L218.66 57.46L218.21 55.83L215.49 55.83L215.04 57.46M216.77 51.19L215.76 54.84L217.94 54.84L216.93 51.19L216.77 51.19M225.33 57.6L225.33 57.6Q224.55 57.6 223.95 57.32Q223.34 57.04 223 56.5Q222.66 55.97 222.66 55.19L222.66 55.19L222.66 54.95L223.72 54.95L223.72 55.19Q223.72 55.93 224.16 56.29Q224.6 56.66 225.33 56.66L225.33 56.66Q226.08 56.66 226.45 56.35Q226.83 56.03 226.83 55.54L226.83 55.54Q226.83 55.21 226.65 55Q226.47 54.8 226.15 54.67Q225.82 54.55 225.36 54.44L225.36 54.44L225 54.35Q224.33 54.19 223.84 53.96Q223.35 53.73 223.09 53.34Q222.82 52.96 222.82 52.35L222.82 52.35Q222.82 51.74 223.12 51.3Q223.42 50.87 223.96 50.63Q224.49 50.39 225.22 50.39L225.22 50.39Q225.94 50.39 226.51 50.64Q227.08 50.89 227.4 51.37Q227.73 51.86 227.73 52.59L227.73 52.59L227.73 52.95L226.67 52.95L226.67 52.59Q226.67 52.14 226.49 51.87Q226.3 51.59 225.98 51.46Q225.65 51.33 225.22 51.33L225.22 51.33Q224.58 51.33 224.23 51.59Q223.88 51.86 223.88 52.32L223.88 52.32Q223.88 52.64 224.03 52.84Q224.19 53.04 224.48 53.17Q224.78 53.3 225.23 53.4L225.23 53.4L225.59 53.49Q226.27 53.64 226.78 53.87Q227.29 54.1 227.59 54.5Q227.89 54.9 227.89 55.52L227.89 55.52Q227.89 56.14 227.58 56.61Q227.27 57.07 226.69 57.34Q226.12 57.6 225.33 57.6M233.87 57.6L233.87 57.6Q232.6 57.6 231.86 56.88Q231.12 56.16 231.12 54.81L231.12 54.81L231.12 53.18Q231.12 51.83 231.86 51.11Q232.6 50.39 233.87 50.39L233.87 50.39Q235.12 50.39 235.79 51.08Q236.47 51.78 236.47 52.98L236.47 52.98L236.47 53.03L235.41 53.03L235.41 52.95Q235.41 52.24 235.03 51.8Q234.65 51.35 233.87 51.35L233.87 51.35Q233.08 51.35 232.63 51.83Q232.19 52.31 232.19 53.16L232.19 53.16L232.19 54.83Q232.19 55.67 232.63 56.15Q233.08 56.64 233.87 56.64L233.87 56.64Q234.65 56.64 235.03 56.19Q235.41 55.74 235.41 55.04L235.41 55.04L235.41 54.88L236.47 54.88L236.47 55.01Q236.47 56.21 235.79 56.91Q235.12 57.6 233.87 57.6M244.36 57.46L239.95 57.46L239.95 50.53L244.31 50.53L244.31 51.5L241.02 51.5L241.02 53.49L244.04 53.49L244.04 54.46L241.02 54.46L241.02 56.49L244.36 56.49L244.36 57.46M248.83 57.46L247.77 57.46L247.77 50.53L249.83 50.53L251.71 56.75L251.87 56.75L251.87 50.53L252.93 50.53L252.93 57.46L250.87 57.46L248.99 51.23L248.83 51.23L248.83 57.46M259.02 57.6L259.02 57.6Q258.23 57.6 257.63 57.32Q257.03 57.04 256.68 56.5Q256.34 55.97 256.34 55.19L256.34 55.19L256.34 54.95L257.4 54.95L257.4 55.19Q257.4 55.93 257.84 56.29Q258.28 56.66 259.02 56.66L259.02 56.66Q259.76 56.66 260.13 56.35Q260.51 56.03 260.51 55.54L260.51 55.54Q260.51 55.21 260.33 55Q260.15 54.8 259.83 54.67Q259.5 54.55 259.04 54.44L259.04 54.44L258.68 54.35Q258.02 54.19 257.53 53.96Q257.04 53.73 256.77 53.34Q256.5 52.96 256.5 52.35L256.5 52.35Q256.5 51.74 256.8 51.3Q257.1 50.87 257.64 50.63Q258.17 50.39 258.9 50.39L258.9 50.39Q259.62 50.39 260.19 50.64Q260.76 50.89 261.08 51.37Q261.41 51.86 261.41 52.59L261.41 52.59L261.41 52.95L260.35 52.95L260.35 52.59Q260.35 52.14 260.17 51.87Q259.99 51.59 259.66 51.46Q259.33 51.33 258.9 51.33L258.9 51.33Q258.26 51.33 257.91 51.59Q257.56 51.86 257.56 52.32L257.56 52.32Q257.56 52.64 257.71 52.84Q257.87 53.04 258.16 53.17Q258.46 53.3 258.91 53.4L258.91 53.4L259.27 53.49Q259.95 53.64 260.46 53.87Q260.98 54.1 261.27 54.5Q261.57 54.9 261.57 55.52L261.57 55.52Q261.57 56.14 261.26 56.61Q260.95 57.07 260.37 57.34Q259.8 57.6 259.02 57.6M267.58 57.6L267.58 57.6Q266.3 57.6 265.55 56.88Q264.8 56.16 264.8 54.81L264.8 54.81L264.8 53.18Q264.8 51.83 265.55 51.11Q266.3 50.39 267.58 50.39L267.58 50.39Q268.86 50.39 269.61 51.11Q270.37 51.83 270.37 53.18L270.37 53.18L270.37 54.81Q270.37 56.16 269.61 56.88Q268.86 57.6 267.58 57.6M267.58 56.64L267.58 56.64Q268.4 56.64 268.85 56.16Q269.29 55.68 269.29 54.85L269.29 54.85L269.29 53.14Q269.29 52.31 268.85 51.83Q268.4 51.35 267.58 51.35L267.58 51.35Q266.78 51.35 266.32 51.83Q265.87 52.31 265.87 53.14L265.87 53.14L265.87 54.85Q265.87 55.68 266.32 56.16Q266.78 56.64 267.58 56.64M274.99 57.46L273.92 57.46L273.92 50.53L276.84 50.53Q277.48 50.53 277.97 50.75Q278.46 50.98 278.73 51.39Q279 51.81 279 52.38L279 52.38L279 52.49Q279 53.14 278.69 53.53Q278.38 53.93 277.93 54.08L277.93 54.08L277.93 54.24Q278.31 54.26 278.54 54.49Q278.77 54.73 278.77 55.16L278.77 55.16L278.77 57.46L277.69 57.46L277.69 55.31Q277.69 55.04 277.55 54.89Q277.41 54.73 277.1 54.73L277.1 54.73L274.99 54.73L274.99 57.46M274.99 51.5L274.99 53.76L276.72 53.76Q277.29 53.76 277.61 53.47Q277.92 53.17 277.92 52.67L277.92 52.67L277.92 52.59Q277.92 52.08 277.61 51.79Q277.3 51.5 276.72 51.5L276.72 51.5L274.99 51.5M286.88 57.46L282.47 57.46L282.47 50.53L286.83 50.53L286.83 51.5L283.54 51.5L283.54 53.49L286.56 53.49L286.56 54.46L283.54 54.46L283.54 56.49L286.88 56.49L286.88 57.46M292.65 57.6L292.65 57.6Q291.86 57.6 291.26 57.32Q290.66 57.04 290.31 56.5Q289.97 55.97 289.97 55.19L289.97 55.19L289.97 54.95L291.03 54.95L291.03 55.19Q291.03 55.93 291.47 56.29Q291.91 56.66 292.65 56.66L292.65 56.66Q293.39 56.66 293.76 56.35Q294.14 56.03 294.14 55.54L294.14 55.54Q294.14 55.21 293.96 55Q293.78 54.8 293.46 54.67Q293.13 54.55 292.68 54.44L292.68 54.44L292.31 54.35Q291.65 54.19 291.16 53.96Q290.67 53.73 290.4 53.34Q290.13 52.96 290.13 52.35L290.13 52.35Q290.13 51.74 290.43 51.3Q290.74 50.87 291.27 50.63Q291.8 50.39 292.53 50.39L292.53 50.39Q293.25 50.39 293.82 50.64Q294.39 50.89 294.71 51.37Q295.04 51.86 295.04 52.59L295.04 52.59L295.04 52.95L293.98 52.95L293.98 52.59Q293.98 52.14 293.8 51.87Q293.62 51.59 293.29 51.46Q292.96 51.33 292.53 51.33L292.53 51.33Q291.89 51.33 291.54 51.59Q291.19 51.86 291.19 52.32L291.19 52.32Q291.19 52.64 291.34 52.84Q291.5 53.04 291.79 53.17Q292.09 53.3 292.54 53.4L292.54 53.4L292.9 53.49Q293.58 53.64 294.09 53.87Q294.61 54.1 294.9 54.5Q295.2 54.9 295.2 55.52L295.2 55.52Q295.2 56.14 294.89 56.61Q294.58 57.07 294 57.34Q293.43 57.6 292.65 57.6" fill="#5B6778"/></svg>